<svg width="145" height="23" viewBox="0 0 145 23" fill="none" xmlns="http://www.w3.org/2000/svg">
<path d="M0.992 1.46562H8.624C10.448 1.46562 12.056 1.81762 13.448 2.52162C14.856 3.20962 15.944 4.18562 16.712 5.44962C17.496 6.71362 17.888 8.18562 17.888 9.86562C17.888 11.5456 17.496 13.0176 16.712 14.2816C15.944 15.5456 14.856 16.5296 13.448 17.2336C12.056 17.9216 10.448 18.2656 8.624 18.2656H0.992V1.46562ZM8.432 15.0736C10.112 15.0736 11.448 14.6096 12.44 13.6816C13.448 12.7376 13.952 11.4656 13.952 9.86562C13.952 8.26562 13.448 7.00162 12.44 6.07362C11.448 5.12962 10.112 4.65762 8.432 4.65762H4.88V15.0736H8.432ZM33.5641 5.35362V18.2656H30.0121V16.7296C29.5161 17.2896 28.9241 17.7216 28.2361 18.0256C27.5481 18.3136 26.8041 18.4576 26.0041 18.4576C24.3081 18.4576 22.9641 17.9696 21.9721 16.9936C20.9801 16.0176 20.4841 14.5696 20.4841 12.6496V5.35362H24.2281V12.0976C24.2281 14.1776 25.1001 15.2176 26.8441 15.2176C27.7401 15.2176 28.4601 14.9296 29.0041 14.3536C29.5481 13.7616 29.8201 12.8896 29.8201 11.7376V5.35362H33.5641ZM50.1847 0.457624V18.2656H46.6087V16.7776C45.6807 17.8976 44.3367 18.4576 42.5767 18.4576C41.3607 18.4576 40.2567 18.1856 39.2647 17.6416C38.2887 17.0976 37.5207 16.3216 36.9607 15.3136C36.4007 14.3056 36.1207 13.1376 36.1207 11.8096C36.1207 10.4816 36.4007 9.31362 36.9607 8.30562C37.5207 7.29762 38.2887 6.52162 39.2647 5.97762C40.2567 5.43362 41.3607 5.16162 42.5767 5.16162C44.2247 5.16162 45.5127 5.68162 46.4407 6.72162V0.457624H50.1847ZM43.2247 15.3856C44.1687 15.3856 44.9527 15.0656 45.5767 14.4256C46.2007 13.7696 46.5127 12.8976 46.5127 11.8096C46.5127 10.7216 46.2007 9.85762 45.5767 9.21762C44.9527 8.56162 44.1687 8.23362 43.2247 8.23362C42.2647 8.23362 41.4727 8.56162 40.8487 9.21762C40.2247 9.85762 39.9127 10.7216 39.9127 11.8096C39.9127 12.8976 40.2247 13.7696 40.8487 14.4256C41.4727 15.0656 42.2647 15.3856 43.2247 15.3856ZM66.2979 11.8576C66.2979 11.9056 66.2739 12.2416 66.2259 12.8656H56.4579C56.6339 13.6656 57.0499 14.2976 57.7059 14.7616C58.3619 15.2256 59.1779 15.4576 60.1539 15.4576C60.8259 15.4576 61.4179 15.3616 61.9299 15.1696C62.4579 14.9616 62.9459 14.6416 63.3939 14.2096L65.3859 16.3696C64.1699 17.7616 62.3939 18.4576 60.0579 18.4576C58.6019 18.4576 57.3139 18.1776 56.1939 17.6176C55.0739 17.0416 54.2099 16.2496 53.6019 15.2416C52.9939 14.2336 52.6899 13.0896 52.6899 11.8096C52.6899 10.5456 52.9859 9.40962 53.5779 8.40162C54.1859 7.37762 55.0099 6.58562 56.0499 6.02562C57.1059 5.44962 58.2819 5.16162 59.5779 5.16162C60.8419 5.16162 61.9859 5.43362 63.0099 5.97762C64.0339 6.52162 64.8339 7.30562 65.4099 8.32962C66.0019 9.33762 66.2979 10.5136 66.2979 11.8576ZM59.6019 7.99362C58.7539 7.99362 58.0419 8.23362 57.4659 8.71362C56.8899 9.19362 56.5379 9.84962 56.4099 10.6816H62.7699C62.6419 9.86562 62.2899 9.21762 61.7139 8.73762C61.1379 8.24162 60.4339 7.99362 59.6019 7.99362ZM74.5745 18.5536C73.2465 18.5536 71.9585 18.3776 70.7105 18.0256C69.4785 17.6576 68.4865 17.1856 67.7345 16.6096L69.0545 13.6816C69.7745 14.2096 70.6305 14.6336 71.6225 14.9536C72.6145 15.2736 73.6065 15.4336 74.5985 15.4336C75.7025 15.4336 76.5185 15.2736 77.0465 14.9536C77.5745 14.6176 77.8385 14.1776 77.8385 13.6336C77.8385 13.2336 77.6785 12.9056 77.3585 12.6496C77.0545 12.3776 76.6545 12.1616 76.1585 12.0016C75.6785 11.8416 75.0225 11.6656 74.1905 11.4736C72.9105 11.1696 71.8625 10.8656 71.0465 10.5616C70.2305 10.2576 69.5265 9.76962 68.9345 9.09762C68.3585 8.42562 68.0705 7.52962 68.0705 6.40962C68.0705 5.43362 68.3345 4.55362 68.8625 3.76962C69.3905 2.96962 70.1825 2.33762 71.2385 1.87362C72.3105 1.40962 73.6145 1.17762 75.1505 1.17762C76.2225 1.17762 77.2705 1.30562 78.2945 1.56162C79.3185 1.81762 80.2145 2.18562 80.9825 2.66562L79.7825 5.61762C78.2305 4.73762 76.6785 4.29762 75.1265 4.29762C74.0385 4.29762 73.2305 4.47362 72.7025 4.82562C72.1905 5.17762 71.9345 5.64162 71.9345 6.21762C71.9345 6.79362 72.2305 7.22562 72.8225 7.51362C73.4305 7.78562 74.3505 8.05762 75.5825 8.32962C76.8625 8.63362 77.9105 8.93762 78.7265 9.24162C79.5425 9.54562 80.2385 10.0256 80.8145 10.6816C81.4065 11.3376 81.7025 12.2256 81.7025 13.3456C81.7025 14.3056 81.4305 15.1856 80.8865 15.9856C80.3585 16.7696 79.5585 17.3936 78.4865 17.8576C77.4145 18.3216 76.1105 18.5536 74.5745 18.5536ZM91.9432 5.16162C93.5432 5.16162 94.8312 5.64162 95.8072 6.60162C96.7992 7.56162 97.2952 8.98562 97.2952 10.8736V18.2656H93.5512V11.4496C93.5512 10.4256 93.3272 9.66562 92.8792 9.16962C92.4312 8.65762 91.7832 8.40162 90.9352 8.40162C89.9912 8.40162 89.2392 8.69762 88.6792 9.28962C88.1192 9.86562 87.8392 10.7296 87.8392 11.8816V18.2656H84.0952V0.457624H87.8392V6.69762C88.3352 6.20162 88.9352 5.82562 89.6392 5.56962C90.3432 5.29762 91.1112 5.16162 91.9432 5.16162ZM105.897 5.16162C107.897 5.16162 109.433 5.64162 110.505 6.60162C111.577 7.54562 112.113 8.97762 112.113 10.8976V18.2656H108.609V16.6576C107.905 17.8576 106.593 18.4576 104.673 18.4576C103.681 18.4576 102.817 18.2896 102.081 17.9536C101.361 17.6176 100.809 17.1536 100.425 16.5616C100.041 15.9696 99.8489 15.2976 99.8489 14.5456C99.8489 13.3456 100.297 12.4016 101.193 11.7136C102.105 11.0256 103.505 10.6816 105.393 10.6816H108.369C108.369 9.86562 108.121 9.24162 107.625 8.80962C107.129 8.36162 106.385 8.13762 105.393 8.13762C104.705 8.13762 104.025 8.24962 103.353 8.47362C102.697 8.68162 102.137 8.96962 101.673 9.33762L100.329 6.72162C101.033 6.22562 101.873 5.84162 102.849 5.56962C103.841 5.29762 104.857 5.16162 105.897 5.16162ZM105.609 15.9376C106.249 15.9376 106.817 15.7936 107.313 15.5056C107.809 15.2016 108.161 14.7616 108.369 14.1856V12.8656H105.801C104.265 12.8656 103.497 13.3696 103.497 14.3776C103.497 14.8576 103.681 15.2416 104.049 15.5296C104.433 15.8016 104.953 15.9376 105.609 15.9376ZM123.133 5.16162C124.333 5.16162 125.421 5.44162 126.397 6.00162C127.389 6.54562 128.165 7.32162 128.725 8.32962C129.285 9.32162 129.565 10.4816 129.565 11.8096C129.565 13.1376 129.285 14.3056 128.725 15.3136C128.165 16.3056 127.389 17.0816 126.397 17.6416C125.421 18.1856 124.333 18.4576 123.133 18.4576C121.485 18.4576 120.189 17.9376 119.245 16.8976V22.9216H115.501V5.35362H119.077V6.84162C120.005 5.72162 121.357 5.16162 123.133 5.16162ZM122.485 15.3856C123.445 15.3856 124.229 15.0656 124.837 14.4256C125.461 13.7696 125.773 12.8976 125.773 11.8096C125.773 10.7216 125.461 9.85762 124.837 9.21762C124.229 8.56162 123.445 8.23362 122.485 8.23362C121.525 8.23362 120.733 8.56162 120.109 9.21762C119.501 9.85762 119.197 10.7216 119.197 11.8096C119.197 12.8976 119.501 13.7696 120.109 14.4256C120.733 15.0656 121.525 15.3856 122.485 15.3856ZM144.72 11.8576C144.72 11.9056 144.696 12.2416 144.648 12.8656H134.88C135.056 13.6656 135.472 14.2976 136.128 14.7616C136.784 15.2256 137.6 15.4576 138.576 15.4576C139.248 15.4576 139.84 15.3616 140.352 15.1696C140.88 14.9616 141.368 14.6416 141.816 14.2096L143.808 16.3696C142.592 17.7616 140.816 18.4576 138.48 18.4576C137.024 18.4576 135.736 18.1776 134.616 17.6176C133.496 17.0416 132.632 16.2496 132.024 15.2416C131.416 14.2336 131.112 13.0896 131.112 11.8096C131.112 10.5456 131.408 9.40962 132 8.40162C132.608 7.37762 133.432 6.58562 134.472 6.02562C135.528 5.44962 136.704 5.16162 138 5.16162C139.264 5.16162 140.408 5.43362 141.432 5.97762C142.456 6.52162 143.256 7.30562 143.832 8.32962C144.424 9.33762 144.72 10.5136 144.72 11.8576ZM138.024 7.99362C137.176 7.99362 136.464 8.23362 135.888 8.71362C135.312 9.19362 134.96 9.84962 134.832 10.6816H141.192C141.064 9.86562 140.712 9.21762 140.136 8.73762C139.56 8.24162 138.856 7.99362 138.024 7.99362Z" fill="#244D4D"/>
</svg>
