<svg width="97" height="23" viewBox="0 0 97 23" fill="none" xmlns="http://www.w3.org/2000/svg">
<path d="M0 22.5L7.488 5.70001H11.328L18.84 22.5H14.76L8.616 7.66801H10.152L3.984 22.5H0ZM3.744 18.9L4.776 15.948H13.416L14.472 18.9H3.744Z" fill="#333333"/>
<path d="M23.936 19.86L24.032 15.3L30.056 9.58799H34.52L28.736 15.468L26.792 17.052L23.936 19.86ZM20.84 22.5V4.69199H24.584V22.5H20.84ZM30.464 22.5L26.096 17.076L28.448 14.172L35 22.5H30.464Z" fill="#333333"/>
<path d="M37 22.5V4.69199H40.744V22.5H37Z" fill="#333333"/>
<path d="M56.744 15.5C56.744 19.366 53.61 22.5 49.744 22.5C45.878 22.5 42.744 19.366 42.744 15.5C42.744 11.634 45.878 8.5 49.744 8.5C53.61 8.5 56.744 11.634 56.744 15.5ZM45.4314 15.5C45.4314 17.8818 47.3622 19.8126 49.744 19.8126C52.1258 19.8126 54.0566 17.8818 54.0566 15.5C54.0566 13.1182 52.1258 11.1874 49.744 11.1874C47.3622 11.1874 45.4314 13.1182 45.4314 15.5Z" fill="#333333"/>
<circle cx="49.744" cy="15.5" r="3" fill="#333333"/>
<path d="M72.744 15.5C72.744 19.366 69.61 22.5 65.744 22.5C61.878 22.5 58.744 19.366 58.744 15.5C58.744 11.634 61.878 8.5 65.744 8.5C69.61 8.5 72.744 11.634 72.744 15.5ZM61.4314 15.5C61.4314 17.8818 63.3622 19.8126 65.744 19.8126C68.1258 19.8126 70.0566 17.8818 70.0566 15.5C70.0566 13.1182 68.1258 11.1874 65.744 11.1874C63.3622 11.1874 61.4314 13.1182 61.4314 15.5Z" fill="#333333"/>
<circle cx="65.744" cy="15.5" r="3" fill="#333333"/>
<path d="M65.744 8.5C65.744 7.44943 65.5371 6.40914 65.135 5.43853C64.733 4.46793 64.1437 3.58601 63.4008 2.84315C62.658 2.10028 61.7761 1.511 60.8055 1.10896C59.8349 0.706926 58.7946 0.5 57.744 0.5C56.6934 0.5 55.6531 0.706926 54.6825 1.10896C53.7119 1.511 52.83 2.10028 52.0871 2.84315C51.3443 3.58601 50.755 4.46793 50.353 5.43853C49.9509 6.40914 49.744 7.44943 49.744 8.5L52.4221 8.5C52.4221 7.80112 52.5597 7.10908 52.8272 6.46339C53.0946 5.81771 53.4866 5.23103 53.9808 4.73684C54.475 4.24266 55.0617 3.85065 55.7074 3.5832C56.3531 3.31574 57.0451 3.17809 57.744 3.17809C58.4429 3.17809 59.1349 3.31574 59.7806 3.58319C60.4263 3.85065 61.013 4.24266 61.5071 4.73684C62.0013 5.23103 62.3933 5.81771 62.6608 6.46339C62.9282 7.10908 63.0659 7.80112 63.0659 8.5H65.744Z" fill="#333333"/>
<path d="M91.28 9.396C92.304 9.396 93.208 9.604 93.992 10.02C94.792 10.42 95.416 11.044 95.864 11.892C96.328 12.724 96.56 13.796 96.56 15.108V22.5H92.816V15.684C92.816 14.644 92.6 13.876 92.168 13.38C91.736 12.884 91.128 12.636 90.344 12.636C89.8 12.636 89.312 12.764 88.88 13.02C88.448 13.26 88.112 13.628 87.872 14.124C87.632 14.62 87.512 15.252 87.512 16.02V22.5H83.768V15.684C83.768 14.644 83.552 13.876 83.12 13.38C82.704 12.884 82.104 12.636 81.32 12.636C80.776 12.636 80.288 12.764 79.856 13.02C79.424 13.26 79.088 13.628 78.848 14.124C78.608 14.62 78.488 15.252 78.488 16.02V22.5H74.744V9.588H78.32V13.116L77.648 12.084C78.096 11.204 78.728 10.54 79.544 10.092C80.376 9.628 81.32 9.396 82.376 9.396C83.56 9.396 84.592 9.7 85.472 10.308C86.368 10.9 86.96 11.812 87.248 13.044L85.928 12.684C86.36 11.676 87.048 10.876 87.992 10.284C88.952 9.692 90.048 9.396 91.28 9.396Z" fill="#333333"/>
</svg>
