<svg xmlns="http://www.w3.org/2000/svg">

  <symbol viewBox="0 0 16 9" id="arrow-down">
    <path d="M15 1.36346L9.23737 7.12609C8.55682 7.80665 7.44318 7.80665 6.76263 7.12609L1 1.36346" stroke-width="1.5"
      stroke-miterlimit="10" stroke-linecap="round" stroke-linejoin="round" />
  </symbol>

  <symbol viewBox="0 0 19 15" id="arrow-right">
    <path d="M11.93 1.42999L18 7.49999L11.93 13.57M1 7.49999H17.83" stroke-width="1.5" stroke-miterlimit="10"
      stroke-linecap="round" stroke-linejoin="round" />
  </symbol>

  <symbol viewBox="0 0 14 14" id="plus">
    <path d="M1 7H13M7 13V1" stroke-width="1.5" stroke-linecap="round" stroke-linejoin="round" />
  </symbol>

  <symbol viewBox="0 0 40 40" id="whatsapp">
    <path
      d="M39.9671 18.8184C39.2872 7.21996 28.7486 -1.71888 16.6101 0.280863C8.25124 1.66068 1.55211 8.4398 0.252277 16.7987C-0.507624 21.6381 0.492246 26.2175 2.67196 29.997L0.892194 36.6161C0.492246 38.1159 1.87207 39.4758 3.35187 39.0558L9.87102 37.256C12.8306 38.9958 16.2902 39.9957 19.9897 39.9957C31.2682 39.9957 40.627 30.057 39.9671 18.8184ZM29.7684 27.4373C29.2862 28.4266 28.4622 29.2079 27.4487 29.637C26.8488 29.897 26.1889 30.017 25.489 30.017C24.4691 30.017 23.3693 29.777 22.2294 29.2771C21.0146 28.7437 19.8613 28.0799 18.7899 27.2973C17.63 26.4575 16.5502 25.5176 15.5103 24.4977C14.4704 23.4578 13.5505 22.358 12.7107 21.2181C11.8908 20.0783 11.2308 18.9384 10.7509 17.7986C10.271 16.6587 10.031 15.5589 10.031 14.519C10.031 13.8391 10.151 13.1792 10.391 12.5793C10.6309 11.9593 11.0109 11.3994 11.5508 10.8995C12.1907 10.2596 12.8906 9.9596 13.6305 9.9596C13.9105 9.9596 14.1905 10.0196 14.4504 10.1396C14.7104 10.2596 14.9504 10.4395 15.1303 10.6995L17.45 13.9791C17.63 14.239 17.77 14.459 17.85 14.679C17.95 14.899 17.99 15.0989 17.99 15.2989C17.99 15.5389 17.91 15.7788 17.77 16.0188C17.63 16.2588 17.45 16.4988 17.2101 16.7387L16.4502 17.5386C16.3302 17.6586 16.2902 17.7786 16.2902 17.9386C16.2902 18.0186 16.3102 18.0985 16.3302 18.1785C16.3702 18.2585 16.3902 18.3185 16.4102 18.3785C16.5901 18.7185 16.9101 19.1384 17.35 19.6583C18.2863 20.7585 19.3095 21.7817 20.4097 22.7179C20.9296 23.1579 21.3695 23.4578 21.7095 23.6378C21.7695 23.6578 21.8295 23.6978 21.8895 23.7178C21.9694 23.7578 22.0494 23.7578 22.1494 23.7578C22.3294 23.7578 22.4494 23.6978 22.5694 23.5778L23.3293 22.8179C23.5892 22.558 23.8292 22.378 24.0492 22.258C24.2891 22.118 24.5091 22.038 24.7691 22.038C24.9691 22.038 25.169 22.078 25.389 22.178C25.609 22.278 25.8489 22.398 26.0889 22.578L29.4085 24.9377C29.6684 25.1176 29.8484 25.3376 29.9684 25.5776C30.0684 25.8375 30.1284 26.0775 30.1284 26.3575C30.0084 26.6974 29.9284 27.0774 29.7684 27.4373Z" />
  </symbol>

  <symbol viewBox="0 0 40 40" id="instagram">
    <path
      d="M28.3941 0H11.6258C4.34216 0 0 4.34 0 11.62V28.36C0 35.66 4.34216 40 11.6258 40H28.3741C35.6578 40 39.9999 35.66 39.9999 28.38V11.62C40.0199 4.34 35.6778 0 28.3941 0ZM20.01 27.76C15.7278 27.76 12.2461 24.28 12.2461 20C12.2461 15.72 15.7278 12.24 20.01 12.24C24.2921 12.24 27.7738 15.72 27.7738 20C27.7738 24.28 24.2921 27.76 20.01 27.76ZM31.8559 9.76C31.7558 10 31.6158 10.22 31.4357 10.42C31.2356 10.6 31.0155 10.74 30.7753 10.84C30.4112 10.9945 30.0092 11.0371 29.6207 10.9623C29.2323 10.8874 28.8749 10.6987 28.5942 10.42C28.4142 10.22 28.2741 10 28.174 9.76C28.0713 9.51963 28.0169 9.26138 28.014 9C28.014 8.74 28.074 8.48 28.174 8.24C28.2741 7.98 28.4142 7.78 28.5942 7.58C29.0545 7.12 29.7548 6.9 30.3951 7.04C30.5352 7.06 30.6553 7.1 30.7753 7.16C30.8954 7.2 31.0155 7.26 31.1355 7.34C31.2356 7.4 31.3356 7.5 31.4357 7.58C31.6158 7.78 31.7558 7.98 31.8559 8.24C31.9559 8.48 32.016 8.74 32.016 9C32.016 9.26 31.9559 9.52 31.8559 9.76Z" />
  </symbol>

  <symbol viewBox="0 0 40 40" id="telegram">
    <path
      d="M36.9203 0.00343675C36.3786 0.0294906 35.8739 0.201502 35.4296 0.397299C35.0134 0.579815 33.4231 1.32336 30.9183 2.49435C28.4113 3.66636 25.0918 5.22002 21.5507 6.88006C14.4686 10.2002 6.5064 13.9374 2.42816 15.8502C2.2748 15.9221 1.7397 16.1084 1.17176 16.5918C0.603825 17.0751 0 18.0767 0 19.1927C0 20.0926 0.393409 20.9866 0.888588 21.5204C1.38377 22.0542 1.90773 22.3178 2.35655 22.5175C3.985 23.2418 9.03556 25.4949 9.98929 25.9203C10.3249 27.0412 12.153 33.1373 12.5769 34.6314C12.8564 35.6174 13.1224 36.2348 13.4688 36.7249C13.642 36.9699 13.8433 37.1847 14.0872 37.353C14.1847 37.4202 14.2916 37.472 14.3997 37.5197L14.4062 37.5233C14.4311 37.5342 14.4525 37.5527 14.4778 37.5623C14.5254 37.5805 14.5573 37.5827 14.621 37.5978C14.8749 37.6872 15.1311 37.7433 15.3599 37.7433C16.3351 37.7433 16.932 37.1578 16.932 37.1578L16.9678 37.1294L21.9836 32.3995L28.067 38.6729C28.1527 38.805 28.9515 40 30.7132 40C31.7593 40 32.5891 39.4278 33.1219 38.8184C33.6546 38.209 33.9865 37.5689 34.1276 36.7639V36.7604C34.2596 35.9998 39.866 4.62334 39.866 4.62334L39.8562 4.66592C40.0204 3.84927 40.0634 3.08874 39.8823 2.33823C39.7012 1.58772 39.224 0.869139 38.6324 0.482459C38.0408 0.0958642 37.462 -0.0226172 36.9203 0.00343675ZM36.6079 3.80013C36.5999 3.85315 36.6138 3.82649 36.6013 3.88884L36.5981 3.91013L36.5948 3.93142C36.5948 3.93142 31.0579 34.9065 30.8532 36.0862C30.8682 35.9971 30.7997 36.1743 30.7295 36.2814C30.6303 36.2068 30.4268 36.1111 30.4268 36.1111L30.3943 36.072L22.0845 27.5028L16.2094 33.0382L17.9573 25.4093C17.9573 25.4093 28.8832 13.0798 29.5415 12.3622C30.0714 11.7881 30.1827 11.588 30.1827 11.39C30.1827 11.1247 30.0559 10.9322 29.7726 10.9322C29.5176 10.9322 29.1747 11.2025 28.9914 11.3296C26.6031 12.9893 16.1182 19.651 11.4182 22.631C10.6713 22.2978 5.48225 19.9823 3.72361 19.1998C3.73692 19.1934 3.73254 19.1957 3.74639 19.1892C7.8257 17.2759 15.7846 13.5386 22.8657 10.219C26.4062 8.55921 29.7283 7.00438 32.2333 5.83331C34.6997 4.68028 36.4134 3.88673 36.6079 3.80013Z" />
  </symbol>

  <symbol viewBox="0 0 30 27" id="email">
    <path
      d="M22.5 0.75H7.5C3 0.75 0 3 0 8.25V18.75C0 24 3 26.25 7.5 26.25H22.5C27 26.25 30 24 30 18.75V8.25C30 3 27 0.75 22.5 0.75ZM23.205 9.885L18.51 13.635C17.52 14.43 16.26 14.82 15 14.82C13.74 14.82 12.465 14.43 11.49 13.635L6.795 9.885C6.5655 9.69449 6.4186 9.42259 6.38505 9.12622C6.3515 8.82985 6.4339 8.53199 6.615 8.295C7.005 7.815 7.71 7.725 8.19 8.115L12.885 11.865C14.025 12.78 15.96 12.78 17.1 11.865L21.795 8.115C22.275 7.725 22.995 7.8 23.37 8.295C23.76 8.775 23.685 9.495 23.205 9.885Z" />
  </symbol>

  <symbol viewBox="0 0 30 30" id="phone">
    <path
      d="M13.5954 19.925L10.8162 22.7C10.2303 23.285 9.29895 23.285 8.69805 22.715C8.5328 22.55 8.36755 22.4 8.2023 22.235C6.68318 20.708 5.28207 19.0683 4.01102 17.33C2.77917 15.62 1.78768 13.91 1.0666 12.215C0.360541 10.505 0 8.87 0 7.31C0 6.29 0.18027 5.315 0.540811 4.415C0.901352 3.5 1.47221 2.66 2.2684 1.91C3.22984 0.965 4.28142 0.5 5.39309 0.5C5.81372 0.5 6.23435 0.59 6.60992 0.77C7.0005 0.95 7.34602 1.22 7.61643 1.61L11.1017 6.515C11.3721 6.89 11.5674 7.235 11.7026 7.565C11.8378 7.88 11.9129 8.195 11.9129 8.48C11.9129 8.84 11.8077 9.2 11.5974 9.545C11.4021 9.89 11.1167 10.25 10.7561 10.61L9.61442 11.795C9.44917 11.96 9.37406 12.155 9.37406 12.395C9.37406 12.515 9.38908 12.62 9.41913 12.74C9.4642 12.86 9.50926 12.95 9.53931 13.04C9.80972 13.535 10.2754 14.18 10.9364 14.96C11.6124 15.74 12.3335 16.535 13.1147 17.33C13.2649 17.48 13.4301 17.63 13.5804 17.78C14.1813 18.365 14.1963 19.325 13.5954 19.925ZM30 24.995C29.998 25.5611 29.8697 26.1196 29.6244 26.63C29.3691 27.17 29.0386 27.68 28.6029 28.16C27.8668 28.97 27.0556 29.555 26.1392 29.93C26.1242 29.93 26.1092 29.945 26.0941 29.945C25.2078 30.305 24.2464 30.5 23.2098 30.5C21.6775 30.5 20.0401 30.14 18.3125 29.405C16.5849 28.67 14.8573 27.68 13.1447 26.435C12.5588 26 11.973 25.565 11.4171 25.1L16.3295 20.195C16.7501 20.51 17.1257 20.75 17.4412 20.915C17.5163 20.945 17.6064 20.99 17.7116 21.035C17.8317 21.08 17.9519 21.095 18.0871 21.095C18.3425 21.095 18.5378 21.005 18.7031 20.84L19.8448 19.715C20.2203 19.34 20.5809 19.055 20.9264 18.875C21.2719 18.665 21.6174 18.56 21.993 18.56C22.2784 18.56 22.5789 18.62 22.9094 18.755C23.2399 18.89 23.5854 19.085 23.9609 19.34L28.9334 22.865C29.324 23.135 29.5944 23.45 29.7596 23.825C29.9099 24.2 30 24.575 30 24.995Z" />
  </symbol>

</svg>