<svg width="382" height="503" viewBox="0 0 382 503" fill="none" xmlns="http://www.w3.org/2000/svg">
<g filter="url(#filter0_d_45_29)">
<path d="M371.858 144.711C371.858 145.09 371.777 145.467 371.617 145.841C366.72 157.307 287.696 166.423 190.929 166.423C94.1623 166.423 15.1384 157.307 10.2407 145.841C10.0809 145.467 10 145.09 10 144.711C10 132.721 91.0047 123 190.929 123C290.853 123 371.858 132.721 371.858 144.711Z" fill="url(#paint0_linear_45_29)" shape-rendering="crispEdges"/>
<path d="M371.617 145.841C366.72 157.307 287.696 166.423 190.929 166.423C94.1623 166.423 15.1384 157.307 10.2407 145.841L77.8484 463.147C77.8484 470.641 128.476 485 190.929 485C253.382 485 304.01 470.641 304.01 463.147L371.617 145.841Z" fill="url(#paint1_linear_45_29)" shape-rendering="crispEdges"/>
</g>
<mask id="mask0_45_29" style="mask-type:alpha" maskUnits="userSpaceOnUse" x="10" y="0" width="362" height="167">
<path d="M372 145C372 157.15 290.964 167 191 167C91.0365 167 10 157.15 10 145C10 132.85 91.0365 123 191 123C290.964 123 372 132.85 372 145Z" fill="#D9D9D9"/>
<path d="M10 145C10 132.85 91.0365 123 191 123C290.964 123 372 132.85 372 145V0H10V145Z" fill="#D9D9D9"/>
</mask>
<g mask="url(#mask0_45_29)">
<circle cx="160.454" cy="164.954" r="50" transform="rotate(-77.774 160.454 164.954)" fill="#12ADC2"/>
<circle cx="160.454" cy="164.954" r="50" transform="rotate(-77.774 160.454 164.954)" fill="url(#paint2_radial_45_29)"/>
<path d="M145.958 151.581L141.722 171.127C140.452 176.991 142.537 181.536 149.378 183.018L163.06 185.983C169.902 187.465 173.681 184.191 174.951 178.328L179.187 158.781C180.457 152.917 178.372 148.373 171.531 146.89L157.849 143.926C151.007 142.443 147.228 145.717 145.958 151.581ZM158.06 153.242L161.621 160.419C162.378 161.933 162.53 163.685 162.175 165.327C161.819 166.969 160.951 168.52 159.639 169.566L153.427 174.625C153.114 174.871 152.718 174.985 152.322 174.945C151.927 174.905 151.562 174.714 151.304 174.411C150.789 173.767 150.871 172.823 151.514 172.308L157.727 167.249C159.241 166.022 159.787 163.5 158.917 161.756L155.356 154.579C154.983 153.844 155.284 152.927 156.035 152.578C156.771 152.205 157.688 152.506 158.06 153.242Z" fill="white"/>
<circle cx="313" cy="138" r="50" fill="#1597E0"/>
<circle cx="313" cy="138" r="50" fill="url(#paint3_radial_45_29)"/>
<path d="M329.92 118.003C329.379 118.029 328.874 118.202 328.43 118.397C328.013 118.58 326.423 119.323 323.918 120.494C321.411 121.666 318.092 123.22 314.551 124.88C307.469 128.2 299.506 131.937 295.428 133.85C295.275 133.922 294.74 134.108 294.172 134.592C293.604 135.075 293 136.077 293 137.193C293 138.093 293.393 138.987 293.889 139.52C294.384 140.054 294.908 140.318 295.357 140.517C296.985 141.242 302.036 143.495 302.989 143.92C303.325 145.041 305.153 151.137 305.577 152.631C305.856 153.617 306.122 154.235 306.469 154.725C306.642 154.97 306.843 155.185 307.087 155.353C307.185 155.42 307.292 155.472 307.4 155.52L307.406 155.523C307.431 155.534 307.453 155.553 307.478 155.562C307.525 155.58 307.557 155.583 307.621 155.598C307.875 155.687 308.131 155.743 308.36 155.743C309.335 155.743 309.932 155.158 309.932 155.158L309.968 155.129L314.984 150.4L321.067 156.673C321.153 156.805 321.951 158 323.713 158C324.759 158 325.589 157.428 326.122 156.818C326.655 156.209 326.987 155.569 327.128 154.764L327.128 154.76C327.26 154 332.866 122.623 332.866 122.623L332.856 122.666C333.02 121.849 333.063 121.089 332.882 120.338C332.701 119.588 332.224 118.869 331.632 118.482C331.041 118.096 330.462 117.977 329.92 118.003ZM329.608 121.8C329.6 121.853 329.614 121.826 329.601 121.889L329.598 121.91L329.595 121.931C329.595 121.931 324.058 152.907 323.853 154.086C323.868 153.997 323.8 154.174 323.73 154.281C323.63 154.207 323.427 154.111 323.427 154.111L323.394 154.072L315.084 145.503L309.209 151.038L310.957 143.409C310.957 143.409 321.883 131.08 322.541 130.362C323.071 129.788 323.183 129.588 323.183 129.39C323.183 129.125 323.056 128.932 322.773 128.932C322.518 128.932 322.175 129.202 321.991 129.33C319.603 130.989 309.118 137.651 304.418 140.631C303.671 140.298 298.482 137.982 296.724 137.2C296.737 137.193 296.733 137.196 296.746 137.189C300.826 135.276 308.785 131.539 315.866 128.219C319.406 126.559 322.728 125.004 325.233 123.833C327.7 122.68 329.413 121.887 329.608 121.8Z" fill="white"/>
<circle cx="81.8596" cy="128.359" r="50" transform="rotate(-19.5701 81.8596 128.359)" fill="#25DE43"/>
<circle cx="81.8596" cy="128.359" r="50" transform="rotate(-19.5701 81.8596 128.359)" fill="url(#paint4_radial_45_29)"/>
<path d="M100.277 120.558C95.7518 109.857 82.8278 104.965 72.0605 110.915C64.6466 115.015 60.6052 123.646 62.1804 131.958C63.0853 136.772 65.5614 140.752 68.8812 143.583L69.4213 150.416C69.5469 151.963 71.3025 152.782 72.5561 151.891L78.0958 148.012C81.4672 148.659 85.0618 148.443 88.5477 147.204C99.1747 143.426 104.664 130.926 100.277 120.558ZM93.5549 132.095C93.4319 133.189 92.9173 134.201 92.1061 134.945C91.6279 135.391 91.0463 135.725 90.3868 135.959C89.4258 136.301 88.3091 136.443 87.0677 136.354C85.7444 136.258 84.4353 136.019 83.1637 135.641C81.7895 135.238 80.4572 134.714 79.1358 134.101C77.8077 133.47 76.5725 132.742 75.3994 131.949C74.245 131.15 73.2414 130.297 72.4074 129.383C71.5734 128.47 70.9789 127.514 70.6306 126.534C70.4028 125.894 70.2948 125.232 70.32 124.586C70.3385 123.922 70.5089 123.267 70.8502 122.615C71.2388 121.798 71.7978 121.281 72.495 121.033C72.7588 120.939 73.0426 120.902 73.3278 120.928C73.6129 120.954 73.8993 121.043 74.156 121.227L77.4402 123.541C77.6968 123.725 77.9024 123.886 78.0515 124.066C78.2194 124.24 78.324 124.415 78.391 124.603C78.4714 124.829 78.4764 125.082 78.4249 125.355C78.3734 125.628 78.2842 125.915 78.1384 126.221L77.6904 127.229C77.6175 127.383 77.62 127.509 77.6736 127.66C77.7004 127.735 77.746 127.804 77.7917 127.873C77.8561 127.935 77.8951 127.984 77.934 128.034C78.2175 128.294 78.6596 128.583 79.2483 128.925C80.499 129.648 81.8058 130.27 83.156 130.783C83.7933 131.024 84.3083 131.159 84.6889 131.215C84.7521 131.213 84.822 131.231 84.8852 131.23C84.974 131.241 85.0494 131.214 85.1436 131.18C85.3132 131.12 85.4061 131.023 85.479 130.87L85.9404 129.9C86.0983 129.568 86.2641 129.318 86.4312 129.131C86.6104 128.919 86.7909 128.769 87.0358 128.682C87.2243 128.615 87.4261 128.586 87.6668 128.607C87.9076 128.627 88.1739 128.66 88.4603 128.749L92.3785 129.861C92.6837 129.943 92.927 130.09 93.1204 130.276C93.3017 130.487 93.4386 130.693 93.5324 130.957C93.5332 131.318 93.5851 131.702 93.5549 132.095Z" fill="white"/>
<circle cx="161.86" cy="94.8601" r="50" transform="rotate(77.1616 161.86 94.8601)" fill="#B9C813"/>
<circle cx="161.86" cy="94.8601" r="50" transform="rotate(77.1616 161.86 94.8601)" fill="url(#paint5_radial_45_29)"/>
<path d="M155.691 94.3451L151.261 91.5543C150.326 90.966 150.05 89.7551 150.613 88.8051C150.779 88.5414 150.925 88.2821 151.091 88.0184C152.626 85.5912 154.342 83.2839 156.225 81.1165C158.083 79.0085 160.013 77.213 162.003 75.7734C164.016 74.3489 166.035 73.3958 168.063 72.9336C169.389 72.6314 170.71 72.5769 171.987 72.779C173.283 72.9766 174.544 73.4698 175.755 74.2827C177.268 75.2526 178.184 76.4819 178.514 77.927C178.638 78.4739 178.646 79.0473 178.523 79.5889C178.405 80.15 178.156 80.6792 177.73 81.1462L172.386 87.1302C171.978 87.5929 171.588 87.949 171.199 88.2225C170.829 88.4916 170.442 88.6825 170.071 88.767C169.603 88.8736 169.104 88.8436 168.593 88.6724C168.087 88.5207 167.535 88.2563 166.96 87.8943L165.081 86.7611C164.817 86.5952 164.542 86.5553 164.23 86.6264C164.074 86.662 163.942 86.7126 163.795 86.7872C163.652 86.8814 163.548 86.9666 163.44 87.0323C162.877 87.5305 162.176 88.327 161.358 89.4174C160.544 90.5273 159.725 91.7002 158.922 92.9513C158.772 93.191 158.626 93.4503 158.475 93.69C157.893 94.6445 156.649 94.9485 155.691 94.3451ZM153.961 117.173C153.224 117.338 152.46 117.337 151.724 117.169C150.946 116.997 150.185 116.719 149.432 116.295C148.161 115.578 147.16 114.696 146.401 113.616C146.397 113.597 146.373 113.582 146.368 113.562C145.638 112.516 145.099 111.324 144.792 109.977C144.338 107.985 144.321 105.75 144.765 103.286C145.209 100.822 145.984 98.2831 147.095 95.6879C147.487 94.7974 147.879 93.9069 148.319 93.0465L156.15 97.9794C155.866 98.6195 155.665 99.1789 155.544 99.6379C155.527 99.7444 155.495 99.8749 155.468 100.025C155.445 100.195 155.461 100.355 155.501 100.531C155.577 100.863 155.752 101.09 156.015 101.256L157.816 102.407C158.415 102.784 158.892 103.168 159.228 103.564C159.604 103.951 159.843 104.369 159.954 104.858C160.038 105.229 160.049 105.637 159.972 106.107C159.894 106.576 159.743 107.083 159.523 107.647L156.414 115.156C156.178 115.743 155.849 116.188 155.41 116.514C154.967 116.82 154.507 117.049 153.961 117.173Z" fill="white"/>
<circle cx="235.419" cy="132.418" r="50" transform="rotate(55.9704 235.419 132.418)" fill="#CB1EC4"/>
<circle cx="235.419" cy="132.418" r="50" transform="rotate(55.9704 235.419 132.418)" fill="url(#paint6_radial_45_29)"/>
<path d="M256.691 128.183L247.307 114.286C243.231 108.25 237.204 107.08 231.171 111.154L217.298 120.522C211.248 124.607 210.081 130.635 214.157 136.671L223.53 150.551C227.606 156.587 233.633 157.757 239.666 153.683L253.556 144.304C259.6 140.246 260.767 134.219 256.691 128.183ZM228.993 136.769C226.597 133.221 227.532 128.388 231.079 125.992C234.626 123.597 239.459 124.535 241.855 128.084C244.252 131.633 243.316 136.466 239.769 138.861C236.222 141.256 231.389 140.318 228.993 136.769ZM250.54 136.514C250.285 136.565 250.024 136.572 249.758 136.535C249.496 136.47 249.257 136.365 249.04 136.222C248.708 136.007 248.448 135.698 248.292 135.334C248.137 134.97 248.094 134.568 248.167 134.18C248.232 133.919 248.336 133.679 248.479 133.462C248.621 133.243 248.804 133.053 249.019 132.904C249.235 132.759 249.484 132.663 249.739 132.612C250.01 132.549 250.255 132.553 250.521 132.59C251.16 132.714 251.734 133.172 251.976 133.781C252.038 133.908 252.072 134.03 252.09 134.163C252.124 134.285 252.141 134.418 252.142 134.562C252.148 134.679 252.121 134.818 252.111 134.945C252.046 135.206 251.959 135.434 251.799 135.663C251.656 135.88 251.475 136.075 251.259 136.221C251.044 136.366 250.795 136.462 250.54 136.514Z" fill="white"/>
</g>
<defs>
<filter id="filter0_d_45_29" x="0" y="121" width="381.858" height="382" filterUnits="userSpaceOnUse" color-interpolation-filters="sRGB">
<feFlood flood-opacity="0" result="BackgroundImageFix"/>
<feColorMatrix in="SourceAlpha" type="matrix" values="0 0 0 0 0 0 0 0 0 0 0 0 0 0 0 0 0 0 127 0" result="hardAlpha"/>
<feOffset dy="8"/>
<feGaussianBlur stdDeviation="5"/>
<feComposite in2="hardAlpha" operator="out"/>
<feColorMatrix type="matrix" values="0 0 0 0 0 0 0 0 0 0 0 0 0 0 0 0 0 0 0.25 0"/>
<feBlend mode="normal" in2="BackgroundImageFix" result="effect1_dropShadow_45_29"/>
<feBlend mode="normal" in="SourceGraphic" in2="effect1_dropShadow_45_29" result="shape"/>
</filter>
<linearGradient id="paint0_linear_45_29" x1="190.929" y1="123" x2="190.929" y2="307.548" gradientUnits="userSpaceOnUse">
<stop stop-color="#1C3F3A"/>
<stop offset="0.0001" stop-color="#1C3F3A"/>
<stop offset="0.9999"/>
<stop offset="1" stop-opacity="0"/>
<stop offset="1" stop-opacity="0"/>
</linearGradient>
<linearGradient id="paint1_linear_45_29" x1="190.929" y1="123" x2="190.929" y2="485" gradientUnits="userSpaceOnUse">
<stop stop-color="#1C3F3A"/>
<stop stop-color="#1C3F3A"/>
<stop offset="1" stop-color="#1C3F3A"/>
</linearGradient>
<radialGradient id="paint2_radial_45_29" cx="0" cy="0" r="1" gradientUnits="userSpaceOnUse" gradientTransform="translate(138.454 141.204) rotate(44.2559) scale(81.6777)">
<stop stop-color="white" stop-opacity="0.6"/>
<stop offset="0.177982" stop-color="white" stop-opacity="0.45"/>
<stop offset="0.283188" stop-color="white" stop-opacity="0.4"/>
<stop offset="0.392134" stop-color="white" stop-opacity="0.35"/>
<stop offset="0.503988" stop-color="white" stop-opacity="0.25"/>
<stop offset="0.626147" stop-color="white" stop-opacity="0.2"/>
<stop offset="0.750383" stop-color="white" stop-opacity="0.15"/>
<stop offset="0.93304" stop-color="white" stop-opacity="0.1"/>
<stop offset="1" stop-color="white" stop-opacity="0.35"/>
</radialGradient>
<radialGradient id="paint3_radial_45_29" cx="0" cy="0" r="1" gradientUnits="userSpaceOnUse" gradientTransform="translate(291 114.25) rotate(44.2559) scale(81.6777)">
<stop stop-color="white" stop-opacity="0.6"/>
<stop offset="0.177982" stop-color="white" stop-opacity="0.45"/>
<stop offset="0.283188" stop-color="white" stop-opacity="0.4"/>
<stop offset="0.392134" stop-color="white" stop-opacity="0.35"/>
<stop offset="0.503988" stop-color="white" stop-opacity="0.25"/>
<stop offset="0.626147" stop-color="white" stop-opacity="0.2"/>
<stop offset="0.750383" stop-color="white" stop-opacity="0.15"/>
<stop offset="0.93304" stop-color="white" stop-opacity="0.1"/>
<stop offset="1" stop-color="white" stop-opacity="0.35"/>
</radialGradient>
<radialGradient id="paint4_radial_45_29" cx="0" cy="0" r="1" gradientUnits="userSpaceOnUse" gradientTransform="translate(59.8596 104.609) rotate(44.2559) scale(81.6777)">
<stop stop-color="white" stop-opacity="0.6"/>
<stop offset="0.177982" stop-color="white" stop-opacity="0.45"/>
<stop offset="0.283188" stop-color="white" stop-opacity="0.4"/>
<stop offset="0.392134" stop-color="white" stop-opacity="0.35"/>
<stop offset="0.503988" stop-color="white" stop-opacity="0.25"/>
<stop offset="0.626147" stop-color="white" stop-opacity="0.2"/>
<stop offset="0.750383" stop-color="white" stop-opacity="0.15"/>
<stop offset="0.93304" stop-color="white" stop-opacity="0.1"/>
<stop offset="1" stop-color="white" stop-opacity="0.35"/>
</radialGradient>
<radialGradient id="paint5_radial_45_29" cx="0" cy="0" r="1" gradientUnits="userSpaceOnUse" gradientTransform="translate(139.86 71.1101) rotate(44.2559) scale(81.6777)">
<stop stop-color="white" stop-opacity="0.6"/>
<stop offset="0.177982" stop-color="white" stop-opacity="0.45"/>
<stop offset="0.283188" stop-color="white" stop-opacity="0.4"/>
<stop offset="0.392134" stop-color="white" stop-opacity="0.35"/>
<stop offset="0.503988" stop-color="white" stop-opacity="0.25"/>
<stop offset="0.626147" stop-color="white" stop-opacity="0.2"/>
<stop offset="0.750383" stop-color="white" stop-opacity="0.15"/>
<stop offset="0.93304" stop-color="white" stop-opacity="0.1"/>
<stop offset="1" stop-color="white" stop-opacity="0.35"/>
</radialGradient>
<radialGradient id="paint6_radial_45_29" cx="0" cy="0" r="1" gradientUnits="userSpaceOnUse" gradientTransform="translate(213.419 108.668) rotate(44.2559) scale(81.6777)">
<stop stop-color="white" stop-opacity="0.6"/>
<stop offset="0.177982" stop-color="white" stop-opacity="0.45"/>
<stop offset="0.283188" stop-color="white" stop-opacity="0.4"/>
<stop offset="0.392134" stop-color="white" stop-opacity="0.35"/>
<stop offset="0.503988" stop-color="white" stop-opacity="0.25"/>
<stop offset="0.626147" stop-color="white" stop-opacity="0.2"/>
<stop offset="0.750383" stop-color="white" stop-opacity="0.15"/>
<stop offset="0.93304" stop-color="white" stop-opacity="0.1"/>
<stop offset="1" stop-color="white" stop-opacity="0.35"/>
</radialGradient>
</defs>
</svg>
