<svg width="382" height="486" viewBox="0 0 382 486" fill="none" xmlns="http://www.w3.org/2000/svg">
<g filter="url(#filter0_d_79_32)">
<path d="M371.858 127.711C371.858 128.09 371.777 128.467 371.617 128.841C366.72 140.307 287.696 149.423 190.929 149.423C94.1623 149.423 15.1384 140.307 10.2407 128.841C10.0809 128.467 10 128.09 10 127.711C10 115.721 91.0047 106 190.929 106C290.853 106 371.858 115.721 371.858 127.711Z" fill="url(#paint0_linear_79_32)" shape-rendering="crispEdges"/>
<path d="M371.617 128.841C366.72 140.307 287.696 149.423 190.929 149.423C94.1623 149.423 15.1384 140.307 10.2407 128.841L77.8484 446.147C77.8484 453.641 128.476 468 190.929 468C253.382 468 304.01 453.641 304.01 446.147L371.617 128.841Z" fill="url(#paint1_linear_79_32)" shape-rendering="crispEdges"/>
</g>
<mask id="mask0_79_32" style="mask-type:alpha" maskUnits="userSpaceOnUse" x="10" y="0" width="362" height="150">
<path d="M372 126C372 139.255 290.964 150 191 150C91.0365 150 10 139.255 10 126C10 112.745 91.0365 102 191 102C290.964 102 372 112.745 372 126Z" fill="#D9D9D9"/>
<path d="M10 126C10 112.745 91.0365 102 191 102C290.964 102 372 112.745 372 126V0.5H10V126Z" fill="#D9D9D9"/>
</mask>
<g mask="url(#mask0_79_32)">
<circle cx="160.454" cy="147.954" r="50" transform="rotate(-77.774 160.454 147.954)" fill="#12ADC2"/>
<circle cx="160.454" cy="147.954" r="50" transform="rotate(-77.774 160.454 147.954)" fill="url(#paint2_radial_79_32)"/>
<path d="M145.958 134.581L141.722 154.127C140.452 159.991 142.537 164.536 149.378 166.018L163.06 168.983C169.902 170.465 173.681 167.191 174.951 161.328L179.187 141.781C180.457 135.917 178.372 131.373 171.531 129.89L157.849 126.926C151.007 125.443 147.228 128.717 145.958 134.581ZM158.06 136.242L161.621 143.419C162.378 144.933 162.53 146.685 162.175 148.327C161.819 149.969 160.951 151.52 159.639 152.566L153.427 157.625C153.114 157.871 152.718 157.985 152.322 157.945C151.927 157.905 151.562 157.714 151.304 157.411C150.789 156.767 150.871 155.823 151.514 155.308L157.727 150.249C159.241 149.022 159.787 146.5 158.917 144.756L155.356 137.579C154.983 136.844 155.284 135.927 156.035 135.578C156.771 135.205 157.688 135.506 158.06 136.242Z" fill="white"/>
<circle cx="313" cy="121" r="50" fill="#1597E0"/>
<circle cx="313" cy="121" r="50" fill="url(#paint3_radial_79_32)"/>
<path d="M329.92 101.003C329.379 101.029 328.874 101.202 328.43 101.397C328.013 101.58 326.423 102.323 323.918 103.494C321.411 104.666 318.092 106.22 314.551 107.88C307.469 111.2 299.506 114.937 295.428 116.85C295.275 116.922 294.74 117.108 294.172 117.592C293.604 118.075 293 119.077 293 120.193C293 121.093 293.393 121.987 293.889 122.52C294.384 123.054 294.908 123.318 295.357 123.517C296.985 124.242 302.036 126.495 302.989 126.92C303.325 128.041 305.153 134.137 305.577 135.631C305.856 136.617 306.122 137.235 306.469 137.725C306.642 137.97 306.843 138.185 307.087 138.353C307.185 138.42 307.292 138.472 307.4 138.52L307.406 138.523C307.431 138.534 307.453 138.553 307.478 138.562C307.525 138.58 307.557 138.583 307.621 138.598C307.875 138.687 308.131 138.743 308.36 138.743C309.335 138.743 309.932 138.158 309.932 138.158L309.968 138.129L314.984 133.4L321.067 139.673C321.153 139.805 321.951 141 323.713 141C324.759 141 325.589 140.428 326.122 139.818C326.655 139.209 326.987 138.569 327.128 137.764L327.128 137.76C327.26 137 332.866 105.623 332.866 105.623L332.856 105.666C333.02 104.849 333.063 104.089 332.882 103.338C332.701 102.588 332.224 101.869 331.632 101.482C331.041 101.096 330.462 100.977 329.92 101.003ZM329.608 104.8C329.6 104.853 329.614 104.826 329.601 104.889L329.598 104.91L329.595 104.931C329.595 104.931 324.058 135.907 323.853 137.086C323.868 136.997 323.8 137.174 323.73 137.281C323.63 137.207 323.427 137.111 323.427 137.111L323.394 137.072L315.084 128.503L309.209 134.038L310.957 126.409C310.957 126.409 321.883 114.08 322.541 113.362C323.071 112.788 323.183 112.588 323.183 112.39C323.183 112.125 323.056 111.932 322.773 111.932C322.518 111.932 322.175 112.202 321.991 112.33C319.603 113.989 309.118 120.651 304.418 123.631C303.671 123.298 298.482 120.982 296.724 120.2C296.737 120.193 296.733 120.196 296.746 120.189C300.826 118.276 308.785 114.539 315.866 111.219C319.406 109.559 322.728 108.004 325.233 106.833C327.7 105.68 329.413 104.887 329.608 104.8Z" fill="white"/>
<circle cx="81.8596" cy="111.36" r="50" transform="rotate(-19.5701 81.8596 111.36)" fill="#25DE43"/>
<circle cx="81.8596" cy="111.36" r="50" transform="rotate(-19.5701 81.8596 111.36)" fill="url(#paint4_radial_79_32)"/>
<path d="M100.278 103.558C95.7519 92.8574 82.8279 87.9649 72.0605 93.915C64.6466 98.015 60.6052 106.646 62.1804 114.958C63.0854 119.772 65.5614 123.752 68.8812 126.583L69.4214 133.416C69.5469 134.963 71.3025 135.782 72.5562 134.891L78.0959 131.012C81.4673 131.659 85.0619 131.443 88.5477 130.204C99.1747 126.426 104.664 113.926 100.278 103.558ZM93.555 115.095C93.4319 116.189 92.9173 117.201 92.1061 117.945C91.6279 118.391 91.0463 118.725 90.3868 118.959C89.4259 119.301 88.3092 119.443 87.0677 119.354C85.7444 119.258 84.4354 119.019 83.1637 118.641C81.7895 118.238 80.4572 117.714 79.1358 117.101C77.8077 116.47 76.5726 115.742 75.3994 114.949C74.2451 114.15 73.2415 113.297 72.4075 112.383C71.5734 111.47 70.9789 110.514 70.6306 109.534C70.4029 108.894 70.2949 108.232 70.32 107.586C70.3385 106.922 70.5089 106.267 70.8502 105.615C71.2388 104.798 71.7978 104.281 72.495 104.033C72.7588 103.939 73.0427 103.902 73.3278 103.928C73.6129 103.954 73.8993 104.043 74.156 104.227L77.4402 106.541C77.6969 106.725 77.9024 106.886 78.0515 107.066C78.2194 107.24 78.3241 107.415 78.391 107.603C78.4714 107.829 78.4764 108.082 78.4249 108.355C78.3734 108.628 78.2842 108.915 78.1385 109.221L77.6904 110.229C77.6175 110.383 77.62 110.509 77.6736 110.66C77.7004 110.735 77.7461 110.804 77.7917 110.873C77.8562 110.935 77.8951 110.984 77.934 111.034C78.2175 111.294 78.6596 111.583 79.2483 111.925C80.499 112.648 81.8058 113.27 83.156 113.783C83.7933 114.024 84.3083 114.159 84.6889 114.215C84.7521 114.213 84.822 114.231 84.8853 114.23C84.974 114.241 85.0494 114.214 85.1436 114.18C85.3132 114.12 85.4061 114.023 85.479 113.87L85.9405 112.9C86.0983 112.568 86.2642 112.318 86.4312 112.131C86.6105 111.919 86.7909 111.769 87.0359 111.682C87.2243 111.615 87.4261 111.586 87.6669 111.607C87.9076 111.627 88.1739 111.66 88.4603 111.749L92.3785 112.861C92.6838 112.943 92.927 113.09 93.1205 113.276C93.3017 113.487 93.4386 113.693 93.5324 113.957C93.5332 114.318 93.5851 114.702 93.555 115.095Z" fill="white"/>
<circle cx="161.86" cy="77.8601" r="50" transform="rotate(77.1616 161.86 77.8601)" fill="#B9C813"/>
<circle cx="161.86" cy="77.8601" r="50" transform="rotate(77.1616 161.86 77.8601)" fill="url(#paint5_radial_79_32)"/>
<path d="M155.691 77.3451L151.261 74.5543C150.326 73.966 150.05 72.7551 150.613 71.8051C150.779 71.5414 150.925 71.2821 151.091 71.0184C152.626 68.5912 154.342 66.2839 156.225 64.1165C158.083 62.0085 160.013 60.213 162.003 58.7734C164.016 57.3489 166.035 56.3958 168.063 55.9336C169.389 55.6314 170.71 55.5769 171.987 55.779C173.283 55.9766 174.544 56.4698 175.755 57.2827C177.268 58.2526 178.184 59.4819 178.514 60.927C178.638 61.4739 178.646 62.0473 178.523 62.5889C178.405 63.15 178.156 63.6792 177.73 64.1462L172.386 70.1302C171.978 70.5929 171.588 70.949 171.199 71.2225C170.829 71.4916 170.442 71.6825 170.071 71.767C169.603 71.8736 169.104 71.8436 168.593 71.6724C168.087 71.5207 167.535 71.2563 166.96 70.8943L165.081 69.7611C164.817 69.5952 164.542 69.5553 164.23 69.6264C164.074 69.662 163.942 69.7126 163.795 69.7872C163.652 69.8814 163.548 69.9666 163.44 70.0323C162.877 70.5305 162.176 71.327 161.358 72.4174C160.544 73.5273 159.725 74.7002 158.922 75.9513C158.772 76.191 158.626 76.4503 158.475 76.69C157.893 77.6445 156.649 77.9485 155.691 77.3451ZM153.961 100.173C153.224 100.338 152.46 100.337 151.724 100.169C150.946 99.9973 150.185 99.7188 149.432 99.2946C148.161 98.5777 147.16 97.6964 146.401 96.6162C146.397 96.5967 146.373 96.5816 146.368 96.5621C145.638 95.5165 145.099 94.3244 144.792 92.9769C144.338 90.9849 144.321 88.7495 144.765 86.2859C145.209 83.8223 145.984 81.2831 147.095 78.6879C147.487 77.7974 147.879 76.9069 148.319 76.0465L156.15 80.9794C155.866 81.6195 155.665 82.1789 155.544 82.6379C155.527 82.7444 155.495 82.8749 155.468 83.0249C155.445 83.1945 155.461 83.3552 155.501 83.531C155.577 83.863 155.752 84.0902 156.015 84.2561L157.816 85.407C158.415 85.7842 158.892 86.1684 159.228 86.5643C159.604 86.9512 159.843 87.3693 159.954 87.8575C160.038 88.2286 160.049 88.637 159.972 89.1066C159.894 89.5762 159.743 90.0832 159.523 90.647L156.414 98.1555C156.178 98.7433 155.849 99.1881 155.41 99.514C154.967 99.8204 154.507 100.049 153.961 100.173Z" fill="white"/>
<circle cx="235.419" cy="115.418" r="50" transform="rotate(55.9704 235.419 115.418)" fill="#CB1EC4"/>
<circle cx="235.419" cy="115.418" r="50" transform="rotate(55.9704 235.419 115.418)" fill="url(#paint6_radial_79_32)"/>
<path d="M256.691 111.183L247.307 97.286C243.231 91.2497 237.204 90.0799 231.171 94.1539L217.298 103.522C211.248 107.607 210.081 113.635 214.157 119.671L223.53 133.551C227.606 139.587 233.633 140.757 239.666 136.683L253.556 127.304C259.6 123.246 260.767 117.219 256.691 111.183ZM228.993 119.769C226.597 116.221 227.532 111.388 231.079 108.992C234.626 106.597 239.459 107.535 241.855 111.084C244.252 114.633 243.316 119.466 239.769 121.861C236.222 124.256 231.389 123.318 228.993 119.769ZM250.54 119.514C250.285 119.565 250.024 119.572 249.758 119.535C249.496 119.47 249.257 119.365 249.04 119.222C248.708 119.007 248.448 118.698 248.292 118.334C248.137 117.97 248.094 117.568 248.167 117.18C248.232 116.919 248.336 116.679 248.479 116.462C248.621 116.243 248.804 116.053 249.019 115.904C249.235 115.759 249.484 115.663 249.739 115.612C250.01 115.549 250.255 115.553 250.521 115.59C251.16 115.714 251.734 116.172 251.976 116.781C252.038 116.908 252.072 117.03 252.09 117.163C252.124 117.285 252.141 117.418 252.142 117.562C252.148 117.679 252.121 117.818 252.111 117.945C252.046 118.206 251.959 118.434 251.799 118.663C251.656 118.88 251.475 119.075 251.259 119.221C251.044 119.366 250.795 119.462 250.54 119.514Z" fill="white"/>
</g>
<defs>
<filter id="filter0_d_79_32" x="0" y="104" width="381.858" height="382" filterUnits="userSpaceOnUse" color-interpolation-filters="sRGB">
<feFlood flood-opacity="0" result="BackgroundImageFix"/>
<feColorMatrix in="SourceAlpha" type="matrix" values="0 0 0 0 0 0 0 0 0 0 0 0 0 0 0 0 0 0 127 0" result="hardAlpha"/>
<feOffset dy="8"/>
<feGaussianBlur stdDeviation="5"/>
<feComposite in2="hardAlpha" operator="out"/>
<feColorMatrix type="matrix" values="0 0 0 0 0 0 0 0 0 0 0 0 0 0 0 0 0 0 0.25 0"/>
<feBlend mode="normal" in2="BackgroundImageFix" result="effect1_dropShadow_79_32"/>
<feBlend mode="normal" in="SourceGraphic" in2="effect1_dropShadow_79_32" result="shape"/>
</filter>
<linearGradient id="paint0_linear_79_32" x1="190.929" y1="106" x2="190.929" y2="290.548" gradientUnits="userSpaceOnUse">
<stop stop-color="#1C3F3A"/>
<stop offset="0.0001" stop-color="#1C3F3A"/>
<stop offset="0.9999"/>
<stop offset="1" stop-opacity="0"/>
<stop offset="1" stop-opacity="0"/>
</linearGradient>
<linearGradient id="paint1_linear_79_32" x1="190.929" y1="106" x2="190.929" y2="468" gradientUnits="userSpaceOnUse">
<stop stop-color="#1C3F3A"/>
<stop stop-color="#1C3F3A"/>
<stop offset="1" stop-color="#1C3F3A"/>
</linearGradient>
<radialGradient id="paint2_radial_79_32" cx="0" cy="0" r="1" gradientUnits="userSpaceOnUse" gradientTransform="translate(138.454 124.204) rotate(44.2559) scale(81.6777)">
<stop stop-color="white" stop-opacity="0.6"/>
<stop offset="0.177982" stop-color="white" stop-opacity="0.45"/>
<stop offset="0.283188" stop-color="white" stop-opacity="0.4"/>
<stop offset="0.392134" stop-color="white" stop-opacity="0.35"/>
<stop offset="0.503988" stop-color="white" stop-opacity="0.25"/>
<stop offset="0.626147" stop-color="white" stop-opacity="0.2"/>
<stop offset="0.750383" stop-color="white" stop-opacity="0.15"/>
<stop offset="0.93304" stop-color="white" stop-opacity="0.1"/>
<stop offset="1" stop-color="white" stop-opacity="0.35"/>
</radialGradient>
<radialGradient id="paint3_radial_79_32" cx="0" cy="0" r="1" gradientUnits="userSpaceOnUse" gradientTransform="translate(291 97.25) rotate(44.2559) scale(81.6777)">
<stop stop-color="white" stop-opacity="0.6"/>
<stop offset="0.177982" stop-color="white" stop-opacity="0.45"/>
<stop offset="0.283188" stop-color="white" stop-opacity="0.4"/>
<stop offset="0.392134" stop-color="white" stop-opacity="0.35"/>
<stop offset="0.503988" stop-color="white" stop-opacity="0.25"/>
<stop offset="0.626147" stop-color="white" stop-opacity="0.2"/>
<stop offset="0.750383" stop-color="white" stop-opacity="0.15"/>
<stop offset="0.93304" stop-color="white" stop-opacity="0.1"/>
<stop offset="1" stop-color="white" stop-opacity="0.35"/>
</radialGradient>
<radialGradient id="paint4_radial_79_32" cx="0" cy="0" r="1" gradientUnits="userSpaceOnUse" gradientTransform="translate(59.8596 87.6095) rotate(44.2559) scale(81.6777)">
<stop stop-color="white" stop-opacity="0.6"/>
<stop offset="0.177982" stop-color="white" stop-opacity="0.45"/>
<stop offset="0.283188" stop-color="white" stop-opacity="0.4"/>
<stop offset="0.392134" stop-color="white" stop-opacity="0.35"/>
<stop offset="0.503988" stop-color="white" stop-opacity="0.25"/>
<stop offset="0.626147" stop-color="white" stop-opacity="0.2"/>
<stop offset="0.750383" stop-color="white" stop-opacity="0.15"/>
<stop offset="0.93304" stop-color="white" stop-opacity="0.1"/>
<stop offset="1" stop-color="white" stop-opacity="0.35"/>
</radialGradient>
<radialGradient id="paint5_radial_79_32" cx="0" cy="0" r="1" gradientUnits="userSpaceOnUse" gradientTransform="translate(139.86 54.1101) rotate(44.2559) scale(81.6777)">
<stop stop-color="white" stop-opacity="0.6"/>
<stop offset="0.177982" stop-color="white" stop-opacity="0.45"/>
<stop offset="0.283188" stop-color="white" stop-opacity="0.4"/>
<stop offset="0.392134" stop-color="white" stop-opacity="0.35"/>
<stop offset="0.503988" stop-color="white" stop-opacity="0.25"/>
<stop offset="0.626147" stop-color="white" stop-opacity="0.2"/>
<stop offset="0.750383" stop-color="white" stop-opacity="0.15"/>
<stop offset="0.93304" stop-color="white" stop-opacity="0.1"/>
<stop offset="1" stop-color="white" stop-opacity="0.35"/>
</radialGradient>
<radialGradient id="paint6_radial_79_32" cx="0" cy="0" r="1" gradientUnits="userSpaceOnUse" gradientTransform="translate(213.419 91.6685) rotate(44.2559) scale(81.6777)">
<stop stop-color="white" stop-opacity="0.6"/>
<stop offset="0.177982" stop-color="white" stop-opacity="0.45"/>
<stop offset="0.283188" stop-color="white" stop-opacity="0.4"/>
<stop offset="0.392134" stop-color="white" stop-opacity="0.35"/>
<stop offset="0.503988" stop-color="white" stop-opacity="0.25"/>
<stop offset="0.626147" stop-color="white" stop-opacity="0.2"/>
<stop offset="0.750383" stop-color="white" stop-opacity="0.15"/>
<stop offset="0.93304" stop-color="white" stop-opacity="0.1"/>
<stop offset="1" stop-color="white" stop-opacity="0.35"/>
</radialGradient>
</defs>
</svg>
